<?xml version="1.0" encoding="UTF-8"?>
<svg version="1.1" xmlns="http://www.w3.org/2000/svg" width="512" height="512">
<path d="M0 0 C1.53859654 1.31279568 3.05940668 2.64669949 4.5625 4 C5.43648437 4.77859375 6.31046875 5.5571875 7.2109375 6.359375 C8.89522203 7.87078575 10.57204497 9.39059009 12.23828125 10.921875 C13.38876953 11.95054688 13.38876953 11.95054688 14.5625 13 C15.36042969 13.76828125 16.15835938 14.5365625 16.98046875 15.328125 C19.47338933 17.26961499 19.47338933 17.26961499 22.58984375 17.02734375 C26.147807 15.79771913 27.62074754 14.35419708 30.125 11.5625 C44.66504893 -3.60315934 63.1184225 -14.1225046 83.5625 -19 C84.55467529 -19.24121582 84.55467529 -19.24121582 85.56689453 -19.48730469 C114.77384598 -26.2992169 144.76319376 -20.91587797 170.5625 -6 C195.40999649 9.83480255 214.98335593 35.00303171 221.5625 64 C227.96931679 98.40902466 220.97469224 130.63272355 204.375 161.3203125 C203.41734951 162.98909082 203.41734951 162.98909082 203.5625 165 C204.45710938 165.40089844 205.35171875 165.80179688 206.2734375 166.21484375 C221.19753708 173.13220326 232.34042543 183.28247695 238.5 198.875 C243.99565472 214.03928116 243.12235627 230.86417579 236.4296875 245.47265625 C235.25234319 247.74547655 233.97105156 249.86343303 232.5625 252 C232.08296875 252.73734375 231.6034375 253.4746875 231.109375 254.234375 C222.5825799 266.23811567 209.73114795 273.43145993 195.51582336 276.52638245 C189.67204184 277.46353601 183.7491384 277.62675137 177.84349632 277.89111328 C175.37549322 278.00190681 172.90815512 278.12273297 170.44075012 278.24609375 C164.32092442 278.55016229 158.20038129 278.83848272 152.07971191 279.125 C146.88778778 279.36839744 141.69630704 279.61887582 136.50521278 279.87939453 C134.07700908 279.99833264 131.64847845 280.10672991 129.21977234 280.21484375 C127.73266949 280.28851861 126.24559208 280.36270942 124.75854492 280.4375 C123.46220627 280.49808594 122.16586761 280.55867188 120.83024597 280.62109375 C115.87383604 281.19580632 113.60031704 282.62247053 110.49389648 286.43530273 C105.84243246 291.92457792 100.74929629 296.95769746 95.66015625 302.03515625 C94.61300864 303.08297946 93.56600934 304.1309509 92.51914978 305.17906189 C90.33640674 307.36326988 88.15188975 309.54568332 85.96606445 311.72680664 C83.18463576 314.50253881 80.40772224 317.28273782 77.63213444 320.06430912 C75.47448979 322.22559203 73.31443853 324.38445714 71.15368462 326.54263115 C70.1296423 327.56601321 69.10632326 328.59011961 68.08378792 329.6150074 C62.95379693 334.7542123 57.80007397 339.81693278 52.26557922 344.5247345 C50.47341905 346.07716496 48.76838845 347.69716875 47.0703125 349.3515625 C32.08355254 363.92250736 32.08355254 363.92250736 21.5625 364.625 C13.27772851 364.14378093 6.83993341 359.91177005 1.37794495 353.91184998 C-0.40097912 352.03846024 -2.24758431 350.36172303 -4.20727539 348.67993164 C-18.26435164 336.49214638 -31.3526696 323.24535367 -44.48608398 310.08178711 C-47.01717724 307.54493529 -49.5528225 305.01268777 -52.08976078 302.48168278 C-54.07774318 300.4973356 -56.06331154 298.51058657 -58.04818535 296.52313042 C-59.42873676 295.14160668 -60.81126784 293.7620621 -62.19386292 292.38258362 C-66.60972308 287.95032368 -70.89675451 283.46647574 -74.96437073 278.71124268 C-77.3321064 275.96079137 -79.83010484 273.33402391 -82.3125 270.6875 C-86.77576707 265.89004372 -91.00724429 260.96837627 -95.109375 255.85546875 C-97.25133966 253.22832753 -99.44817731 250.66665492 -101.67529297 248.11230469 C-108.37994938 240.40963516 -114.63532774 232.42030764 -120.75341797 224.24609375 C-122.4526321 221.97981802 -124.16548467 219.72429565 -125.87890625 217.46875 C-143.11232443 194.62119587 -162.01301424 168.05115105 -170.546875 140.40625 C-172.46416008 133.87684388 -172.46416008 133.87684388 -177.0625 129.140625 C-179.12014179 128.16429497 -181.2039042 127.24137642 -183.30859375 126.37109375 C-195.60283739 120.98372856 -204.4775793 109.15556323 -209.4375 97 C-209.7571875 96.21753906 -210.076875 95.43507813 -210.40625 94.62890625 C-215.27682947 80.1750107 -213.5748139 62.89922524 -207.15234375 49.2734375 C-198.35909318 33.45048521 -185.37881668 24.7167686 -168.4453125 19.37109375 C-165.67373742 18.85883766 -163.00291627 18.90689765 -160.1875 18.9375 C-158.57101563 18.95103516 -158.57101563 18.95103516 -156.921875 18.96484375 C-156.10203125 18.97644531 -155.2821875 18.98804688 -154.4375 19 C-154.20546875 18.44570312 -153.9734375 17.89140625 -153.734375 17.3203125 C-143.7538237 -0.536457 -118.96062915 -12.19969014 -100.328125 -17.96875 C-66.66757679 -27.23312107 -27.91808627 -21.86408629 0 0 Z " fill="#E63950" transform="translate(234.4375,85)"/>
<path d="M0 0 C1.61648437 0.01353516 1.61648437 0.01353516 3.265625 0.02734375 C4.08546875 0.03894531 4.9053125 0.05054687 5.75 0.0625 C5.88575439 0.84786133 6.02150879 1.63322266 6.16137695 2.44238281 C6.79052326 6.06656373 7.4264739 9.68952038 8.0625 13.3125 C8.38250977 15.16488281 8.38250977 15.16488281 8.70898438 17.0546875 C10.06906851 31.37369284 10.06906851 31.37369284 16.75 43.0625 C18.8952098 43.89084695 18.8952098 43.89084695 21.359375 44.38671875 C22.32262695 44.60674561 23.28587891 44.82677246 24.27832031 45.0534668 C25.34147461 45.28332275 26.40462891 45.51317871 27.5 45.75 C28.61729492 45.99983643 29.73458984 46.24967285 30.88574219 46.50708008 C43.21600248 49.23126496 55.59220793 51.7496401 67.96777344 54.25854492 C69.16614838 54.50161125 69.16614838 54.50161125 70.38873291 54.74958801 C71.95887872 55.06725194 73.52930927 55.3835121 75.10003662 55.69828796 C78.68608293 56.42062646 82.26034955 57.16860448 85.82226562 58.00244141 C87.05138672 58.28651855 88.28050781 58.5705957 89.546875 58.86328125 C90.60745117 59.11891846 91.66802734 59.37455566 92.76074219 59.63793945 C97.48104903 60.30835873 101.45120374 59.40707111 105.75390625 57.4609375 C106.48359619 57.13907471 107.21328613 56.81721191 107.96508789 56.4855957 C108.73973389 56.13972412 109.51437988 55.79385254 110.3125 55.4375 C117.22188338 52.44642787 124.16798313 49.75188519 131.3125 47.375 C132.19228516 47.08036865 133.07207031 46.7857373 133.97851562 46.48217773 C138.0830639 45.14062658 142.15404602 43.92501636 146.375 43.0078125 C160.35543475 39.89477259 170.79897568 32.39775407 181.78955078 23.39111328 C184.83730823 21.32562187 187.17349398 21.61543675 190.75 22.0625 C193.47449231 23.71153482 194.44617459 25.0405418 195.3515625 28.0859375 C196.20916155 33.01292813 195.81309896 35.89502467 193.11376953 40.30297852 C190.64660977 43.48608277 187.48699649 45.61912438 184.1875 47.875 C183.51525391 48.35130859 182.84300781 48.82761719 182.15039062 49.31835938 C179.37739425 51.27625453 176.57452235 53.1794851 173.75 55.0625 C173.02617533 57.12175139 173.02617533 57.12175139 172.75 59.0625 C174.30388428 59.22069214 174.30388428 59.22069214 175.88916016 59.38208008 C186.74935898 60.4913045 197.60504373 61.63905933 208.45812988 62.8157959 C210.50908467 63.03656712 212.56065767 63.25157753 214.61230469 63.46582031 C217.6612648 63.78858862 220.70550833 64.13786914 223.75 64.5 C225.02544678 64.62822144 225.02544678 64.62822144 226.32666016 64.7590332 C231.91664585 65.46833128 234.85064667 66.93198376 238.75 71.0625 C239.93025741 73.73707474 240.02021687 76.16060582 239.75 79.0625 C238.39339984 82.03410035 237.04716559 83.76533441 234.75 86.0625 C235.63751953 86.19205078 235.63751953 86.19205078 236.54296875 86.32421875 C242.01640325 87.29747219 245.38120117 88.32512665 248.75 93.0625 C249.85949563 96.94573469 250.1612222 99.05729018 248.625 102.8125 C246.38206239 105.50402514 245.0227573 106.73947045 241.75 108.0625 C238.40030419 108.29882823 235.10149935 108.23820967 231.75 108.0625 C232.2346875 108.65289062 232.719375 109.24328125 233.21875 109.8515625 C235.46973619 113.10171093 235.28412603 115.19008628 234.75 119.0625 C232.95976215 122.03296873 230.89995172 124.48752414 227.75 126.0625 C225.87620395 126.13283769 223.99998898 126.1468022 222.125 126.125 C221.12210937 126.11597656 220.11921875 126.10695313 219.0859375 126.09765625 C218.31507813 126.08605469 217.54421875 126.07445312 216.75 126.0625 C217.23726563 126.65160156 217.72453125 127.24070312 218.2265625 127.84765625 C220.42074476 131.03765969 220.1493096 133.2690588 219.75 137.0625 C218.04626881 140.89589517 216.58786503 142.49218183 212.75 144.0625 C203.65493234 145.31174881 193.81975046 143.14654398 184.765625 142.015625 C183.01986234 141.80079437 181.27407325 141.58617837 179.52825928 141.37176514 C175.87994615 140.92205569 172.23228192 140.46744875 168.58496094 140.00976562 C163.94932395 139.42879012 159.31191942 138.8635692 154.67383194 138.30253983 C151.06938829 137.86410568 147.46628188 137.41535249 143.86345673 136.96382904 C142.15616168 136.75141934 140.4484285 136.54249684 138.740242 136.33737946 C121.78097678 134.29238011 106.33621307 131.17849251 92.75 120.0625 C89.03246472 118.76893446 85.13412013 118.78290915 81.23779297 118.61352539 C80.48583649 118.57757767 79.73388 118.54162994 78.95913696 118.5045929 C77.32670048 118.42701612 75.69417661 118.35126181 74.06158066 118.27711678 C71.4601286 118.15869691 68.85897823 118.03495051 66.25784302 117.90977478 C58.86153209 117.55488875 51.46475217 117.2102028 44.06787109 116.86743164 C39.53720939 116.65711024 35.00684382 116.44110665 30.47659683 116.22204399 C28.76668692 116.14053442 27.05667323 116.06116729 25.3465538 115.98417854 C16.51954479 115.58675714 7.73610878 115.04833652 -1.05029297 114.09545898 C-2.14828815 113.97813337 -2.14828815 113.97813337 -3.26846504 113.85843754 C-18.35103952 112.11833862 -30.94279323 105.02627795 -40.609375 93.30859375 C-51.15914048 78.86546243 -54.42009885 62.51430954 -51.94970703 44.92431641 C-49.06331971 30.34530274 -40.29394935 18.09546201 -28.5 9.25 C-20.02842556 3.63326648 -10.18217918 -0.11067586 0 0 Z " fill="#FBC3AD" transform="translate(74.25,103.9375)"/>
<path d="M0 0 C14.77397947 4.11733854 25.54711324 13.13013566 33.4609375 26.12109375 C40.83654478 39.91759772 42.74079967 57.09914024 38.3125 72.1875 C36.38852445 77.45488761 34.08671362 82.3179063 31 87 C30.52046875 87.73734375 30.0409375 88.4746875 29.546875 89.234375 C21.00484651 101.25956074 8.15273015 108.42574012 -6.08232117 111.52415466 C-12.52096067 112.5742348 -19.07372532 112.72115748 -25.58203125 113.03515625 C-27.20280831 113.11892286 -28.82355068 113.20336289 -30.44425964 113.28843689 C-34.70230344 113.51013251 -38.96075514 113.7226916 -43.21936035 113.93328857 C-47.48702118 114.14593834 -51.75422467 114.36736478 -56.02148438 114.58789062 C-58.51573642 114.71600287 -61.01000026 114.84388324 -63.50426674 114.97171402 C-65.13588364 115.05549274 -66.76748447 115.1395851 -68.39906883 115.22399521 C-83.23541868 115.99084477 -83.23541868 115.99084477 -90.6496582 116.22900391 C-91.58561325 116.26255478 -92.5215683 116.29610565 -93.48588562 116.33067322 C-95.10521176 116.38603951 -96.72501307 116.42973828 -98.345047 116.45753479 C-104.07405398 116.66266021 -107.50345296 118.49025402 -111.79296875 122.15625 C-123.16449937 131.65600656 -140.03052414 132.59139766 -154.1484375 134.2265625 C-155.77609615 134.42095093 -157.40366848 134.61606342 -159.03115845 134.81185913 C-163.2792771 135.32117489 -167.5283951 135.8215817 -171.77783203 136.31976318 C-176.94835242 136.92743785 -182.1177278 137.54476215 -187.28714943 138.16170311 C-191.30626567 138.64133313 -195.32555828 139.11922423 -199.34555054 139.59146118 C-200.08453583 139.67878006 -200.82352112 139.76609894 -201.5848999 139.85606384 C-203.57313015 140.09099225 -205.56150765 140.32467356 -207.54989624 140.55825806 C-210.71720485 140.96379167 -213.85365147 141.45789956 -217 142 C-220.5498268 142.45677918 -223.62496272 142.79591791 -226.80859375 140.953125 C-228.98589523 139.1778672 -230.73529577 137.52940847 -232 135 C-232.36507907 130.07143256 -232.15524006 127.76968154 -229 124 C-229.65226562 124.04640625 -230.30453125 124.0928125 -230.9765625 124.140625 C-236.89538162 124.38506001 -240.34881773 124.06978448 -245 120 C-247.4915904 116.2626144 -247.45793285 114.42668417 -247 110 C-244.9765625 107.2734375 -244.9765625 107.2734375 -243 105 C-243.88042969 105.05800781 -244.76085937 105.11601562 -245.66796875 105.17578125 C-254.99814701 105.53821881 -254.99814701 105.53821881 -257.94140625 103.95703125 C-260.52407386 101.32810691 -261.88218967 98.86394242 -262.375 95.25 C-261.8528401 90.7246142 -260.15770622 89.2328897 -257 86 C-254.47524538 84.73762269 -252.68799534 84.90143596 -249.875 84.9375 C-248.50988281 84.95103516 -248.50988281 84.95103516 -247.1171875 84.96484375 C-246.41851562 84.97644531 -245.71984375 84.98804688 -245 85 C-245 84.34 -245 83.68 -245 83 C-245.8971875 82.62875 -245.8971875 82.62875 -246.8125 82.25 C-249.41320743 80.76388147 -250.54416577 79.62050161 -252 77 C-252.70168294 72.96532307 -252.18402591 71.31897824 -250.125 67.75 C-247.7716481 65.20753144 -245.87967154 64.52000041 -242.49731445 63.92016602 C-241.60815338 63.76178253 -240.71899231 63.60339905 -239.80288696 63.44021606 C-235.18415961 62.71480758 -230.55839403 62.09622468 -225.91796875 61.52734375 C-224.90076248 61.39936905 -223.88355621 61.27139435 -222.83552551 61.13954163 C-219.61993594 60.73542518 -216.40377468 60.33612394 -213.1875 59.9375 C-209.9534594 59.53465956 -206.71956114 59.13075075 -203.48591614 58.7247467 C-201.48281793 58.47343913 -199.47947976 58.22403481 -197.47587585 57.97679138 C-196.56755508 57.86319778 -195.65923431 57.74960419 -194.72338867 57.63256836 C-193.92970383 57.53423203 -193.13601898 57.43589569 -192.31828308 57.33457947 C-189.85652521 56.97929342 -187.43434362 56.50840655 -185 56 C-185 55.01 -185 54.02 -185 53 C-186.39371995 51.67259255 -186.39371995 51.67259255 -188.2890625 50.546875 C-188.98386719 50.09183594 -189.67867188 49.63679688 -190.39453125 49.16796875 C-191.8577447 48.23776476 -193.32127572 47.30806008 -194.78515625 46.37890625 C-200.36575161 42.7233603 -206.00271191 38.81526625 -207.76171875 32.0859375 C-207.63381253 27.4139945 -207.48535535 24.74230819 -204.875 20.75 C-202 19 -202 19 -199.2421875 19.1015625 C-195.28578236 20.19791573 -192.46293874 22.17187785 -189.25 24.625 C-187.50091661 25.92466613 -185.74997643 27.22163799 -183.99560547 28.51416016 C-182.55882743 29.58392173 -181.13770725 30.67482975 -179.72705078 31.77880859 C-173.52620623 36.44455849 -167.87908783 38.59818645 -160.375 40.375 C-151.43064831 42.68447369 -142.76374886 45.34710429 -134.125 48.625 C-132.69293213 49.16519775 -132.69293213 49.16519775 -131.23193359 49.71630859 C-127.48012974 51.16062488 -123.79823809 52.59290697 -120.21386719 54.42089844 C-113.50454773 57.83086122 -109.32595501 58.57500562 -102 57 C-100.19885742 56.64204346 -100.19885742 56.64204346 -98.36132812 56.27685547 C-94.76439972 55.54594878 -91.18105872 54.76076301 -87.5987854 53.96142578 C-84.37655369 53.24266694 -81.15153497 52.53682077 -77.92658997 51.83035278 C-76.23341815 51.4594146 -74.54037548 51.08788648 -72.84745789 50.71578979 C-64.02527183 48.77876168 -55.19126562 46.89876503 -46.35314941 45.03591919 C-43.83887239 44.50556294 -41.32519732 43.97241536 -38.81152344 43.43920898 C-37.27673467 43.11552363 -35.74190607 42.79202707 -34.20703125 42.46875 C-33.15184044 42.24433983 -33.15184044 42.24433983 -32.07533264 42.01539612 C-27.22910145 41 -27.22910145 41 -25 41 C-24.7834375 40.34515625 -24.566875 39.6903125 -24.34375 39.015625 C-22.52082765 34.92464809 -20.03422067 31.43085166 -17.5 27.75 C-12.28641715 20.07279501 -7.49118974 12.22458474 -2.86328125 4.18359375 C-1 1 -1 1 0 0 Z " fill="#FBC3AD" transform="translate(436,250)"/>
<path d="M0 0 C20.97995462 13.31184255 35.21712392 38.26347459 41 62 C45.7921775 85.54754607 44.41027662 108.42367994 36 131 C35.70432129 131.79825195 35.40864258 132.59650391 35.10400391 133.41894531 C31.12080892 144.03674447 26.7342507 154.19732839 21 164 C20.54496094 164.79100098 20.08992188 165.58200195 19.62109375 166.39697266 C16.3698326 172.04614285 13.04315044 177.64353951 9.66113281 183.21533203 C8.0736181 185.87658906 6.56056647 188.56931395 5.0546875 191.27734375 C-2.45566543 204.28785792 -2.45566543 204.28785792 -9.57543945 206.44580078 C-12.2883886 207.0317898 -14.9912051 207.40806807 -17.74951172 207.70800781 C-21.93260151 208.2507476 -26.01664753 209.30965348 -30.125 210.25 C-35.16586429 211.37087448 -39.79938822 212.23261522 -45 212 C-42.73138965 207.56141453 -40.15257423 203.87679954 -36.9375 200.0625 C-31.10055078 193.06007156 -26.05012277 185.58133641 -21 178 C-20.54866699 177.32694824 -20.09733398 176.65389648 -19.63232422 175.96044922 C5.98519408 137.64033445 29.04696894 93.93877654 20.4765625 46.48120117 C17.39963848 31.41540707 11.4288912 16.24143854 1.7265625 4.171875 C0 2 0 2 0 0 Z " fill="#D10128" transform="translate(415,87)"/>
<path d="M0 0 C11.87728813 9.4028531 19.26051433 20.97157925 22 36 C23.45610544 51.15892552 21.50570488 65.0980881 13 78 C12.52046875 78.73734375 12.0409375 79.4746875 11.546875 80.234375 C3.00484651 92.25956074 -9.84726985 99.42574012 -24.08232117 102.52415466 C-30.52096067 103.5742348 -37.07372532 103.72115748 -43.58203125 104.03515625 C-45.20280831 104.11892286 -46.82355068 104.20336289 -48.44425964 104.28843689 C-52.70230344 104.51013251 -56.96075514 104.7226916 -61.21936035 104.93328857 C-65.48702118 105.14593834 -69.75422467 105.36736478 -74.02148438 105.58789062 C-76.51573642 105.71600287 -79.01000026 105.84388324 -81.50426674 105.97171402 C-83.13588364 106.05549274 -84.76748447 106.1395851 -86.39906883 106.22399521 C-101.23541868 106.99084477 -101.23541868 106.99084477 -108.6496582 107.22900391 C-109.58561325 107.26255478 -110.5215683 107.29610565 -111.48588562 107.33067322 C-113.10521176 107.38603951 -114.72501307 107.42973828 -116.345047 107.45753479 C-122.07405398 107.66266021 -125.50345296 109.49025402 -129.79296875 113.15625 C-141.16449937 122.65600656 -158.03052414 123.59139766 -172.1484375 125.2265625 C-173.77609615 125.42095093 -175.40366848 125.61606342 -177.03115845 125.81185913 C-181.2792771 126.32117489 -185.5283951 126.8215817 -189.77783203 127.31976318 C-194.94835242 127.92743785 -200.1177278 128.54476215 -205.28714943 129.16170311 C-209.30626567 129.64133313 -213.32555828 130.11922423 -217.34555054 130.59146118 C-218.08453583 130.67878006 -218.82352112 130.76609894 -219.5848999 130.85606384 C-221.57313015 131.09099225 -223.56150765 131.32467356 -225.54989624 131.55825806 C-228.71720485 131.96379167 -231.85365147 132.45789956 -235 133 C-238.5498268 133.45677918 -241.62496272 133.79591791 -244.80859375 131.953125 C-246.98589523 130.1778672 -248.73529577 128.52940847 -250 126 C-250.04022391 123.6670134 -250.04320247 121.33293334 -250 119 C-249.67 119.99 -249.34 120.98 -249 122 C-238.40647414 120.72305206 -227.81458165 119.43333733 -217.22427368 118.12995911 C-210.97114562 117.36129391 -204.71663203 116.60519113 -198.46107483 115.85656738 C-194.24761468 115.34972979 -190.03545431 114.83261803 -185.82351685 114.31329346 C-183.79348679 114.06508528 -181.76294956 113.82098659 -179.73190308 113.58123779 C-159.74531157 111.33966555 -159.74531157 111.33966555 -141.4375 103.4375 C-140.48746094 102.85871094 -139.53742188 102.27992188 -138.55859375 101.68359375 C-136.03549153 100.11453175 -136.03549153 100.11453175 -134.16015625 98.34765625 C-129.07273404 95.17376717 -121.32590013 95.79853907 -115.41943359 95.58276367 C-114.60194641 95.55002853 -113.78445923 95.5172934 -112.94219971 95.48356628 C-111.17992447 95.41303145 -109.41759676 95.34379778 -107.65522385 95.2757473 C-103.88669973 95.12841413 -100.11873286 94.96867008 -96.35068703 94.80964375 C-89.35414455 94.51437425 -82.35752218 94.22347356 -75.35986328 93.95581055 C-70.47402293 93.7684425 -65.58912859 93.56421743 -60.70442581 93.34929848 C-58.85738406 93.27107881 -57.01007658 93.19886504 -55.16254807 93.13313866 C-36.05058386 92.44771358 -18.15911013 88.95619294 -4 75 C4.09919824 65.26290657 10.38710038 53.87089198 11 41 C11.05027344 40.11054688 11.10054688 39.22109375 11.15234375 38.3046875 C11.55090093 26.09289536 8.5994691 16.16532854 2.5234375 5.6796875 C1 3 1 3 0 0 Z " fill="#F2AD97" transform="translate(454,259)"/>
<path d="M0 0 C1.22589844 -0.00515625 2.45179688 -0.0103125 3.71484375 -0.015625 C8.16178138 0.14521605 12.45916367 0.9484799 16.8347168 1.71972656 C22.36294252 2.62792611 27.92930405 3.17097849 33.5 3.75 C41.43006689 4.57709007 49.30408527 5.53509364 57.17675781 6.80419922 C61.12877336 7.41472209 65.0845864 7.84546641 69.0625 8.25 C69.3925 7.26 69.7225 6.27 70.0625 5.25 C69.69900546 12.5198908 69.69900546 12.5198908 66.9375 15.6875 C62.18389322 18.27098195 57.38683167 18.41134338 52.0625 18.25 C52.5575 18.765625 53.0525 19.28125 53.5625 19.8125 C55.66498778 23.22904264 55.60781303 25.29648052 55.0625 29.25 C53.27226215 32.22046873 51.21245172 34.67502414 48.0625 36.25 C46.18870395 36.32033769 44.31248898 36.3343022 42.4375 36.3125 C41.43460937 36.30347656 40.43171875 36.29445312 39.3984375 36.28515625 C38.24214844 36.26775391 38.24214844 36.26775391 37.0625 36.25 C37.54976563 36.83910156 38.03703125 37.42820313 38.5390625 38.03515625 C40.73324476 41.22515969 40.4618096 43.4565588 40.0625 47.25 C38.35876881 51.08339517 36.90036503 52.67968183 33.0625 54.25 C23.96743234 55.49924881 14.13225046 53.33404398 5.078125 52.203125 C3.33236234 51.98829437 1.58657325 51.77367837 -0.15924072 51.55926514 C-3.80755385 51.10955569 -7.45521808 50.65494875 -11.10253906 50.19726562 C-15.73817605 49.61629012 -20.37558058 49.0510692 -25.01366806 48.49003983 C-28.61811171 48.05160568 -32.22121812 47.60285249 -35.82404327 47.15132904 C-37.53133832 46.93891934 -39.2390715 46.72999684 -40.947258 46.52487946 C-57.90652322 44.47988011 -73.35128693 41.36599251 -86.9375 30.25 C-90.65503528 28.95643446 -94.55337987 28.97040915 -98.44970703 28.80102539 C-99.57764175 28.74710381 -99.57764175 28.74710381 -100.72836304 28.6920929 C-102.36079952 28.61451612 -103.99332339 28.53876181 -105.62591934 28.46461678 C-108.2273714 28.34619691 -110.82852177 28.22245051 -113.42965698 28.09727478 C-120.82596791 27.74238875 -128.22274783 27.3977028 -135.61962891 27.05493164 C-140.15029061 26.84461024 -144.68065618 26.62860665 -149.21090317 26.40954399 C-150.92081308 26.32803442 -152.63082677 26.24866729 -154.3409462 26.17167854 C-163.16795521 25.77425714 -171.95139122 25.23583652 -180.73779297 24.28295898 C-181.46978975 24.20474191 -182.20178654 24.12652483 -182.95596504 24.04593754 C-197.28408675 22.39288095 -209.21617434 15.97389331 -218.9375 5.25 C-218.9375 4.59 -218.9375 3.93 -218.9375 3.25 C-216.86182013 4.27368757 -214.81033395 5.3198031 -212.78125 6.43359375 C-201.27491441 12.58948329 -189.9025588 13.7179771 -177.10693359 14.15805054 C-174.42985138 14.25247422 -171.75421324 14.36639494 -169.078125 14.4855957 C-160.70663122 14.85646066 -152.3342569 15.19884996 -143.96044922 15.51318359 C-137.96263093 15.74054098 -131.96698696 16.00204344 -125.97140503 16.28198242 C-123.63070272 16.38499038 -121.28943774 16.47597255 -118.94778442 16.55444336 C-115.6402093 16.66631101 -112.3367323 16.81912628 -109.03125 16.98046875 C-108.05679428 17.00360641 -107.08233856 17.02674408 -106.07835388 17.05058289 C-98.3586926 17.49361643 -93.88156521 20.49466082 -87.9375 25.25 C-69.5352493 36.85832548 -43.63675666 36.07966535 -22.49609375 38.3203125 C-1.63568023 40.53765558 -1.63568023 40.53765558 8.5 42.375 C17.54778182 44.08009557 17.54778182 44.08009557 26.0625 41.5625 C28.51848821 39.1068851 28.51848821 39.1068851 29.0625 34.25 C15.2025 32.6 1.3425 30.95 -12.9375 29.25 C-13.9375 26.25 -13.9375 26.25 -12.75 23.5625 C-7.74847161 19.45013221 -0.90170462 20.98438546 5.30200195 21.5402832 C8.58124503 21.91146687 11.85290845 22.32042914 15.125 22.75 C28.80794421 25.42389315 28.80794421 25.42389315 41.625 22.5625 C43.10412741 20.18303417 44.17691819 17.90674544 45.0625 15.25 C44.45396683 15.26228134 43.84543365 15.27456268 43.21846008 15.28721619 C37.1544302 15.35617643 31.30372955 14.96116338 25.29296875 14.19140625 C24.40893875 14.0827977 23.52490875 13.97418915 22.61408997 13.86228943 C20.76426669 13.6339206 18.91479395 13.40269527 17.06567383 13.16870117 C14.24048722 12.81129657 11.41433806 12.4625137 8.58789062 12.11523438 C6.78118839 11.89112114 4.97454552 11.66652869 3.16796875 11.44140625 C2.32832077 11.33719864 1.48867279 11.23299103 0.62358093 11.12562561 C-3.26586642 10.63202452 -7.10481553 10.09465407 -10.9375 9.25 C-10.625 5.875 -10.625 5.875 -9.9375 2.25 C-6.25525423 -0.20483051 -4.38738539 -0.01811098 0 0 Z " fill="#F2AC97" transform="translate(253.9375,193.75)"/>
<path d="M0 0 C1.18239258 0.02707031 1.18239258 0.02707031 2.38867188 0.0546875 C4.32214261 0.10155952 6.25498285 0.1732959 8.1875 0.25 C5.49813992 4.51472756 2.67496725 8.01119275 -0.91308594 11.59350586 C-1.40800537 12.09032364 -1.9029248 12.58714142 -2.4128418 13.09901428 C-4.0360214 14.72587165 -5.66624398 16.34545794 -7.296875 17.96484375 C-8.43821142 19.10498594 -9.57917609 20.24550039 -10.7197876 21.3863678 C-13.10730974 23.77232992 -15.49813886 26.15490955 -17.89160156 28.53491211 C-20.9404803 31.56685038 -23.98278464 34.60527991 -27.02282333 37.64607906 C-29.37844671 40.00142873 -31.73668135 42.35414942 -34.09577179 44.70602608 C-35.21735338 45.82445244 -36.33835403 46.94346171 -37.4587326 48.06309319 C-42.87962063 53.47641356 -48.29900389 58.84602753 -54.14389038 63.80796814 C-55.92580831 65.34792236 -57.61798774 66.95829234 -59.3046875 68.6015625 C-74.29144746 83.17250736 -74.29144746 83.17250736 -84.8125 83.875 C-93.09897907 83.39368175 -99.5359709 79.16015608 -104.99926758 73.15966797 C-106.76647617 71.29847157 -108.59907448 69.63442238 -110.546875 67.96484375 C-114.59344165 64.4573863 -118.53346445 60.85244283 -122.4375 57.1875 C-123.11683594 56.55062256 -123.79617187 55.91374512 -124.49609375 55.25756836 C-131.41663417 48.73585779 -138.13610443 42.02028238 -144.8125 35.25 C-141.8125 35.25 -141.8125 35.25 -139.17578125 37.62890625 C-138.15222598 38.68371255 -137.13566488 39.74533637 -136.125 40.8125 C-135.04476596 41.92232504 -133.96273567 43.0304046 -132.87890625 44.13671875 C-132.35312988 44.67474121 -131.82735352 45.21276367 -131.28564453 45.76708984 C-120.15015862 57.12791146 -120.15015862 57.12791146 -105.6875 61.5625 C-97.6168533 61.47361623 -92.98814309 59.58769178 -87.3125 53.9375 C-86.44625 53.01710938 -86.44625 53.01710938 -85.5625 52.078125 C-83.88661873 50.3274276 -82.15503206 48.76000581 -80.3125 47.1875 C-76.33713038 43.75038159 -72.4748894 40.20111085 -68.625 36.625 C-67.97249268 36.0256665 -67.31998535 35.42633301 -66.64770508 34.80883789 C-63.46437636 31.85588422 -60.42528987 28.88123472 -57.5859375 25.59375 C-51.15706293 18.27011422 -46.39985042 15.11675276 -36.70507812 13.57177734 C-30.93510635 12.63666934 -26.19402175 10.92834699 -21 8.25 C-20.34862061 7.91701904 -19.69724121 7.58403809 -19.02612305 7.2409668 C-16.17512036 5.72050695 -13.7842749 4.2237056 -11.4140625 2.015625 C-7.64804114 -0.5402934 -4.43547388 -0.19333164 0 0 Z " fill="#B8022D" transform="translate(340.8125,365.75)"/>
<path d="M0 0 C20.24239195 15.29425169 31.33800628 41.46462432 34.875 65.9375 C37.42780988 85.81396139 35.00022537 105.20878354 28 124 C27.70432129 124.79825195 27.40864258 125.59650391 27.10400391 126.41894531 C23.12080892 137.03674447 18.7342507 147.19732839 13 157 C12.54496094 157.79100098 12.08992188 158.58200195 11.62109375 159.39697266 C8.3698326 165.04614285 5.04315044 170.64353951 1.66113281 176.21533203 C0.0736181 178.87658906 -1.43943353 181.56931395 -2.9453125 184.27734375 C-10.48233502 197.30586371 -10.48233502 197.30586371 -18.3425293 199.64794922 C-22.92144666 200.66042003 -27.29786993 201 -32 201 C-30.19228204 196.94540095 -27.59815927 193.43167307 -25.0625 189.8125 C2.90121959 149.39741103 32.03788325 101.74351714 22.92382812 50.39892578 C19.48080666 33.85790396 12.42851753 17.38695103 1.73046875 4.203125 C0 2 0 2 0 0 Z " fill="#B8032D" transform="translate(423,94)"/>
<path d="M0 0 C0.63147949 0.21962402 1.26295898 0.43924805 1.91357422 0.66552734 C15.07031413 5.30271205 26.38249279 11.95609728 37 21 C38.28003906 22.02673828 38.28003906 22.02673828 39.5859375 23.07421875 C45.69491416 28.13291394 45.69491416 28.13291394 47.1875 32.375 C47 35 47 35 45 37 C41.63634487 36.87604621 40.21903956 36.1921658 37.67578125 33.9609375 C36.89589844 33.10757813 36.11601562 32.25421875 35.3125 31.375 C19.39225782 14.91706976 -3.49527098 5.45999351 -26.22265625 4.76171875 C-54.90522762 4.29216268 -78.15143166 11.71629036 -99.1496582 31.80883789 C-104.09618833 36.65737534 -108.45149718 41.45660659 -111.94921875 47.48828125 C-112.29597656 47.98714844 -112.64273438 48.48601562 -113 49 C-113.66 49 -114.32 49 -115 49 C-115.99 43.555 -115.99 43.555 -117 38 C-116.34 38 -115.68 38 -115 38 C-114.76925781 37.45601562 -114.53851563 36.91203125 -114.30078125 36.3515625 C-104.0886409 17.88997544 -80.51537665 4.84487154 -61 -1 C-59.94619141 -1.31710938 -59.94619141 -1.31710938 -58.87109375 -1.640625 C-40.67695371 -6.6253209 -17.76103226 -6.35306026 0 0 Z " fill="#E7546D" transform="translate(198,76)"/>
<path d="M0 0 C0.99 0.495 0.99 0.495 2 1 C1.50628906 1.48210937 1.01257813 1.96421875 0.50390625 2.4609375 C-0.13675781 3.09257812 -0.77742188 3.72421875 -1.4375 4.375 C-2.07558594 5.00148438 -2.71367187 5.62796875 -3.37109375 6.2734375 C-5.07882176 7.91723061 -5.07882176 7.91723061 -6 10 C-6.66 10 -7.32 10 -8 10 C-8 10.66 -8 11.32 -8 12 C-8.66 12 -9.32 12 -10 12 C-10 12.66 -10 13.32 -10 14 C-11.41601562 15.39257812 -11.41601562 15.39257812 -13.40625 17.03125 C-18.37887998 21.25973641 -22.92385907 25.85040576 -27.5 30.5 C-32.57059737 35.65198737 -37.65805312 40.67990595 -43.14648438 45.38720703 C-45.47535002 47.41361462 -47.69253845 49.54220778 -49.91796875 51.68066406 C-58.46623608 59.82262486 -63.75356553 63.48199323 -75.94921875 63.3359375 C-79.02490984 62.99725705 -81.21035711 62.30460911 -84 61 C-85.01320313 60.57267578 -85.01320313 60.57267578 -86.046875 60.13671875 C-88.53832377 58.68669557 -90.2581574 56.89390387 -92.25 54.8125 C-94.97051752 51.97780017 -97.75762996 49.31747397 -100.734375 46.7578125 C-105.37396625 42.73810107 -109.68545509 38.42564897 -114 34.0625 C-114.77472656 33.28326172 -115.54945313 32.50402344 -116.34765625 31.70117188 C-118.23410757 29.8030758 -120.11816245 27.90266851 -122 26 C-119 26 -119 26 -116.36328125 28.37890625 C-115.33972598 29.43371255 -114.32316488 30.49533637 -113.3125 31.5625 C-112.23226596 32.67232504 -111.15023567 33.7804046 -110.06640625 34.88671875 C-109.54062988 35.42474121 -109.01485352 35.96276367 -108.47314453 36.51708984 C-97.33765862 47.87791146 -97.33765862 47.87791146 -82.875 52.3125 C-74.8043533 52.22361623 -70.17564309 50.33769178 -64.5 44.6875 C-63.63375 43.76710938 -63.63375 43.76710938 -62.75 42.828125 C-61.07411873 41.0774276 -59.34253206 39.51000581 -57.5 37.9375 C-53.52463038 34.50038159 -49.6623894 30.95111085 -45.8125 27.375 C-45.15999268 26.7756665 -44.50748535 26.17633301 -43.83520508 25.55883789 C-40.65187636 22.60588422 -37.61278987 19.63123472 -34.7734375 16.34375 C-27.01847262 7.51588653 -20.59999508 5.02160465 -9.04785156 3.41699219 C-6.88411284 2.97640257 -5.09068502 2.26846253 -3.0859375 1.3515625 C-1.55839844 0.68253906 -1.55839844 0.68253906 0 0 Z " fill="#D10028" transform="translate(318,375)"/>
<path d="M0 0 C2.64 0 5.28 0 8 0 C8.38929687 0.86238281 8.77859375 1.72476563 9.1796875 2.61328125 C20.61960558 27.69444557 34.51235537 50.91152734 51 73 C51.84549651 74.14420298 52.69058124 75.28871041 53.53515625 76.43359375 C57.00550862 81.10636666 60.54308153 85.71166756 64.1875 90.25 C64.82945312 91.05179687 65.47140625 91.85359375 66.1328125 92.6796875 C67.36745577 94.21395131 68.61213581 95.74019769 69.8671875 97.2578125 C70.42664063 97.95648438 70.98609375 98.65515625 71.5625 99.375 C72.05878906 99.98085938 72.55507812 100.58671875 73.06640625 101.2109375 C74 103 74 103 73.71484375 105.1640625 C73 107 73 107 72 108 C69.81640625 108.5 69.81640625 108.5 67 108 C64.63469332 105.94475225 62.82509292 103.49010138 60.9375 101 C60.37023193 100.27522461 59.80296387 99.55044922 59.21850586 98.80371094 C57.46205987 96.5483162 55.72943496 94.27614675 54 92 C52.99237202 90.6925661 51.98456811 89.38526777 50.9765625 88.078125 C47.92746592 84.09319737 44.95246266 80.05688883 42 76 C41.17048828 74.86353027 41.17048828 74.86353027 40.32421875 73.70410156 C0 18.15589729 0 18.15589729 0 0 Z " fill="#E7556D" transform="translate(71,218)"/>
<path d="M0 0 C1.09274191 2.80990777 0.55278093 4.36704449 -0.125 7.25 C-7.35848508 8.47073177 -14.57890755 9.44839124 -21.875 10.1875 C-29.75953288 10.98662457 -37.63084855 11.87360602 -45.5 12.8125 C-46.57604492 12.93939209 -47.65208984 13.06628418 -48.76074219 13.19702148 C-50.28296387 13.37986694 -50.28296387 13.37986694 -51.8359375 13.56640625 C-52.73618652 13.67412354 -53.63643555 13.78184082 -54.56396484 13.89282227 C-57.1106745 14.24800208 -59.60508292 14.74199015 -62.125 15.25 C-72.79233031 16.24296958 -72.79233031 16.24296958 -77.3125 12.875 C-80.00099236 8.98132142 -80.22756904 6.96817592 -80.125 2.25 C-79.795 3.57 -79.465 4.89 -79.125 6.25 C-78.29307632 6.1350267 -77.46115265 6.02005341 -76.60401917 5.90159607 C-68.73514615 4.81608733 -60.86491579 3.74114468 -52.99301243 2.67782497 C-48.94675746 2.13089252 -44.90112768 1.57999686 -40.85668945 1.01977539 C-36.94814072 0.47852978 -33.03826397 -0.05195396 -29.12727165 -0.57523918 C-27.64095624 -0.77598282 -26.15514438 -0.98049459 -24.66989326 -1.18896675 C-4.81925373 -3.96879719 -4.81925373 -3.96879719 0 0 Z " fill="#F2AC97" transform="translate(254.125,339.75)"/>
<path d="M0 0 C1.86567627 0.17789063 1.86567627 0.17789063 3.76904297 0.359375 C5.23289541 0.51948585 6.69658944 0.6810489 8.16015625 0.84375 C9.88815697 1.02629385 11.6161859 1.20857087 13.34423828 1.390625 C18.14559686 1.90517876 22.94338547 2.44769439 27.74047852 3.00048828 C30.74778147 3.34664202 33.75567318 3.68729427 36.76367188 4.02734375 C38.68883887 4.24707373 40.61397044 4.46711442 42.5390625 4.6875 C43.4317836 4.78857056 44.3245047 4.88964111 45.24427795 4.99377441 C49.25841726 5.45893499 53.212476 5.95441789 57.16015625 6.84375 C57.49015625 5.85375 57.82015625 4.86375 58.16015625 3.84375 C57.74939196 9.08099464 56.97729694 12.13567047 53.16015625 15.84375 C49.70573588 17.1654579 46.80191862 16.6966204 43.19140625 16.171875 C41.99290039 16.00349121 40.79439453 15.83510742 39.55957031 15.66162109 C37.62936035 15.3805249 37.62936035 15.3805249 35.66015625 15.09375 C32.95781485 14.71041621 30.25455305 14.33404092 27.55078125 13.9609375 C26.86070984 13.86547638 26.17063843 13.77001526 25.45965576 13.67166138 C20.6540781 13.01806766 15.84467448 12.46385828 11.01953125 11.9765625 C9.74013672 11.84733398 8.46074219 11.71810547 7.14257812 11.58496094 C4.68625042 11.34395547 2.22921526 11.1100375 -0.22851562 10.88378906 C-1.33259766 10.77518555 -2.43667969 10.66658203 -3.57421875 10.5546875 C-4.54584961 10.46493652 -5.51748047 10.37518555 -6.51855469 10.28271484 C-8.83984375 9.84375 -8.83984375 9.84375 -10.83984375 7.84375 C-10.68434244 4.81147437 -10.32975739 3.32792993 -8.15014648 1.17382812 C-5.12857688 -0.56573768 -3.45814485 -0.34621274 0 0 Z " fill="#F2AD97" transform="translate(255.83984375,174.15625)"/>
<path d="M0 0 C1.3828125 1.2734375 1.3828125 1.2734375 3.0703125 4.0234375 C2.67578125 6.1953125 2.67578125 6.1953125 2.0703125 8.0234375 C-5.91962249 9.60238892 -13.8951174 10.67044244 -21.9921875 11.5234375 C-23.16797363 11.65089355 -24.34375977 11.77834961 -25.55517578 11.90966797 C-29.01299153 12.28431586 -32.47127595 12.65433578 -35.9296875 13.0234375 C-39.3883822 13.39519072 -42.84663604 13.77075636 -46.3046875 14.1484375 C-47.01633057 14.22384766 -47.72797363 14.29925781 -48.46118164 14.37695312 C-51.99610681 14.76168331 -55.45618647 15.25899905 -58.9296875 16.0234375 C-58.9296875 15.3634375 -58.9296875 14.7034375 -58.9296875 14.0234375 C-59.5278125 13.7759375 -60.1259375 13.5284375 -60.7421875 13.2734375 C-63.34289493 11.78731897 -64.47385327 10.64393911 -65.9296875 8.0234375 C-66.1171875 4.7734375 -66.1171875 4.7734375 -65.9296875 2.0234375 C-65.5996875 3.3434375 -65.2696875 4.6634375 -64.9296875 6.0234375 C-64.27226562 5.90299072 -63.61484375 5.78254395 -62.9375 5.65844727 C-53.64112436 4.02638538 -44.30750186 2.98405996 -34.9296875 1.9609375 C-32.55472449 1.70115331 -30.17989728 1.44035099 -27.80541992 1.17616272 C-26.34102769 1.01325722 -24.87635626 0.85283592 -23.41137695 0.69529724 C-3.08969767 -1.56361218 -3.08969767 -1.56361218 0 0 Z " fill="#F2AC97" transform="translate(249.9296875,318.9765625)"/>
<path d="M0 0 C2.08195168 2.20441942 2.91861918 3.25747812 3.125 6.25 C1.44793444 7.92706556 -0.72351724 7.67761303 -3.02734375 7.93359375 C-4.10604736 8.05549072 -5.18475098 8.1773877 -6.29614258 8.30297852 C-7.45654053 8.42987061 -8.61693848 8.5567627 -9.8125 8.6875 C-10.98643311 8.82019287 -12.16036621 8.95288574 -13.36987305 9.08959961 C-18.72064078 9.69208619 -24.07271573 10.27570354 -29.4296875 10.8203125 C-30.2431665 10.90482666 -31.05664551 10.98934082 -31.89477539 11.07641602 C-33.38027189 11.22937897 -34.8664298 11.37609944 -36.35327148 11.51538086 C-40.21152303 11.91324987 -43.30678919 12.79081445 -46.875 14.25 C-52.24125026 14.92175767 -56.5757909 14.91100112 -61.4375 12.4375 C-63.875 10.25 -63.875 10.25 -65.875 7.25 C-65.95405064 4.91800612 -65.96298769 2.58167378 -65.875 0.25 C-65.545 0.25 -65.215 0.25 -64.875 0.25 C-64.875 2.23 -64.875 4.21 -64.875 6.25 C-64.1845459 6.14187988 -63.4940918 6.03375977 -62.78271484 5.92236328 C-52.97546877 4.39928596 -43.15735564 2.95403128 -33.33447266 1.53564453 C-31.43379373 1.26028347 -29.5334044 0.98291654 -27.63330078 0.70361328 C-24.85255443 0.29505857 -22.07094028 -0.10704335 -19.2890625 -0.5078125 C-18.02638046 -0.69526535 -18.02638046 -0.69526535 -16.7381897 -0.88650513 C-4.35324567 -2.64980171 -4.35324567 -2.64980171 0 0 Z " fill="#F2AC97" transform="translate(254.875,359.75)"/>
<path d="M0 0 C3.93214301 1.58939426 6.33020346 4.16342502 9.25 7.1875 C14.23790982 12.28771266 19.41864035 17.02776504 24.90625 21.58203125 C28.38552989 24.49371675 31.20098518 27.40126667 34 31 C34.99 31.66 35.98 32.32 37 33 C37 33.66 37 34.32 37 35 C33.74792908 33.58261511 31.68638933 31.87473588 29.25 29.3125 C26.71029388 26.65007699 24.08316789 24.18346683 21.296875 21.78515625 C16.66126296 17.76377899 12.32656773 13.47406288 8 9.125 C7.22527344 8.35414063 6.45054687 7.58328125 5.65234375 6.7890625 C4.92144531 6.056875 4.19054687 5.3246875 3.4375 4.5703125 C2.77621094 3.90789551 2.11492187 3.24547852 1.43359375 2.56298828 C0 1 0 1 0 0 Z " fill="#CE0F34" transform="translate(196,400)"/>
<path d="M0 0 C1.2065625 0.0309375 1.2065625 0.0309375 2.4375 0.0625 C2.7675 2.0425 3.0975 4.0225 3.4375 6.0625 C1.7875 6.7225 0.1375 7.3825 -1.5625 8.0625 C-3.125 6.8125 -3.125 6.8125 -4.5625 5.0625 C-4.13825523 1.45641945 -3.76992241 0.09194933 0 0 Z " fill="#E7536C" transform="translate(151.5625,330.9375)"/>
<path d="M0 0 C4.67800217 3.30412289 8.53563984 6.38085313 12 11 C12.99 11.66 13.98 12.32 15 13 C15 13.66 15 14.32 15 15 C11.60534645 13.54189378 9.47748287 11.66233272 6.9375 9 C4.66346144 6.62557202 2.75478071 4.83652048 0 3 C0 2.01 0 1.02 0 0 Z " fill="#CA072E" transform="translate(218,420)"/>
<path d="M0 0 C1.13199353 0.9080162 2.25532363 1.82683826 3.375 2.75 C4.00148438 3.26046875 4.62796875 3.7709375 5.2734375 4.296875 C7.08312318 6.08199481 8.00117455 7.67949644 9 10 C6.51339545 9.6121322 5.27654781 9.29037521 3.515625 7.44140625 C3.09796875 6.82136719 2.6803125 6.20132813 2.25 5.5625 C1.82203125 4.94503906 1.3940625 4.32757813 0.953125 3.69140625 C0 2 0 2 0 0 Z " fill="#C40830" transform="translate(423,94)"/>
</svg>
